<?xml version="1.0" encoding="UTF-8"?><svg id="Layer_2" xmlns="http://www.w3.org/2000/svg" viewBox="0 0 157.18 259.46"><defs><style>.cls-1{fill:none;stroke:#231f20;stroke-miterlimit:10;}.cls-2{letter-spacing:-.07em;}.cls-3{font-size:12px;}.cls-3,.cls-4{font-family:ArialMT, Arial;}.cls-3,.cls-4,.cls-5{fill:#231f20;}.cls-4{font-size:14px;}.cls-5{font-family:Arial-BoldMT, Arial;font-size:11px;font-weight:700;}</style></defs><g id="Layer_1-2"><text class="cls-4" transform="translate(82.73 61.97)"><tspan x="0" y="0">p</tspan></text><text class="cls-3" transform="translate(100.35 63.91)"><tspan x="0" y="0">0</tspan><tspan class="cls-2" x="6.67" y="0">11</tspan><tspan x="18.24" y="0">10000</tspan></text><text class="cls-4" transform="translate(82.73 77.8)"><tspan x="0" y="0">q</tspan></text><text class="cls-3" transform="translate(100.35 79.73)"><tspan x="0" y="0">0</tspan><tspan class="cls-2" x="6.67" y="0">11</tspan><tspan x="18.24" y="0">10001 </tspan></text><text class="cls-4" transform="translate(82.73 95.62)"><tspan x="0" y="0">r</tspan></text><text class="cls-3" transform="translate(100.35 95.55)"><tspan x="0" y="0">0</tspan><tspan class="cls-2" x="6.67" y="0">11</tspan><tspan x="18.24" y="0">10010 </tspan></text><text class="cls-4" transform="translate(82.73 111.44)"><tspan x="0" y="0">s</tspan></text><text class="cls-3" transform="translate(100.35 111.38)"><tspan x="0" y="0">0</tspan><tspan class="cls-2" x="6.67" y="0">11</tspan><tspan x="18.24" y="0">100</tspan><tspan class="cls-2" x="38.26" y="0">1</tspan><tspan x="44.04" y="0">1 </tspan></text><text class="cls-4" transform="translate(82.73 127.27)"><tspan x="0" y="0">t</tspan></text><text class="cls-3" transform="translate(100.35 127.2)"><tspan x="0" y="0">0</tspan><tspan class="cls-2" x="6.67" y="0">11</tspan><tspan x="18.24" y="0">10100 </tspan></text><text class="cls-4" transform="translate(82.73 143.09)"><tspan x="0" y="0">u</tspan></text><text class="cls-3" transform="translate(98.55 143.02)"><tspan x="0" y="0">0</tspan><tspan class="cls-2" x="6.67" y="0">11</tspan><tspan x="18.24" y="0">10101 </tspan></text><text class="cls-4" transform="translate(82.73 158.91)"><tspan x="0" y="0">v</tspan></text><text class="cls-3" transform="translate(98.55 158.85)"><tspan x="0" y="0">0</tspan><tspan class="cls-2" x="6.67" y="0">11</tspan><tspan x="18.24" y="0">10</tspan><tspan class="cls-2" x="31.59" y="0">1</tspan><tspan x="37.37" y="0">10 </tspan></text><text class="cls-4" transform="translate(82.73 174.74)"><tspan x="0" y="0">w</tspan></text><text class="cls-3" transform="translate(98.55 174.67)"><tspan x="0" y="0">0</tspan><tspan class="cls-2" x="6.67" y="0">11</tspan><tspan x="18.24" y="0">10</tspan><tspan class="cls-2" x="31.59" y="0">11</tspan><tspan x="43.15" y="0">1 </tspan></text><text class="cls-4" transform="translate(82.73 190.56)"><tspan x="0" y="0">x</tspan></text><text class="cls-3" transform="translate(98.55 190.49)"><tspan x="0" y="0">0</tspan><tspan class="cls-2" x="6.67" y="0">111</tspan><tspan x="24.02" y="0">1000 </tspan></text><text class="cls-4" transform="translate(82.73 204.39)"><tspan x="0" y="0">y</tspan></text><text class="cls-3" transform="translate(98.55 206.32)"><tspan x="0" y="0">0</tspan><tspan class="cls-2" x="6.67" y="0">111</tspan><tspan x="24.02" y="0">1001 </tspan></text><text class="cls-4" transform="translate(82.73 222.21)"><tspan x="0" y="0">z</tspan></text><text class="cls-3" transform="translate(98.55 222.14)"><tspan x="0" y="0">0</tspan><tspan class="cls-2" x="6.67" y="0">111</tspan><tspan x="24.02" y="0">1010 </tspan></text><text class="cls-4" transform="translate(82.92 238.03)"><tspan x="0" y="0">.</tspan></text><text class="cls-3" transform="translate(98.74 238.96)"><tspan x="0" y="0">0010</tspan><tspan class="cls-2" x="26.7" y="0">11</tspan><tspan x="38.26" y="0">10</tspan></text><text/><text class="cls-3" transform="translate(98.74 255.54)"><tspan x="0" y="0">00100000</tspan></text><rect class="cls-1" x="78.62" y="51.08" width="78.06" height="206.72"/><line class="cls-1" x1="78.27" y1="51" x2="156.27" y2="51"/><line class="cls-1" x1="78.58" y1="66.91" x2="156.59" y2="66.91"/><line class="cls-1" x1="78.58" y1="82.81" x2="156.59" y2="82.81"/><line class="cls-1" x1="78.85" y1="98.72" x2="156.86" y2="98.72"/><line class="cls-1" x1="79.17" y1="114.63" x2="157.18" y2="114.63"/><line class="cls-1" x1="79.17" y1="130.53" x2="157.18" y2="130.53"/><line class="cls-1" x1="78.85" y1="146.44" x2="156.86" y2="146.44"/><line class="cls-1" x1="79.17" y1="162.35" x2="157.18" y2="162.35"/><line class="cls-1" x1="79.17" y1="178.25" x2="157.18" y2="178.25"/><line class="cls-1" x1="78.85" y1="194.16" x2="156.86" y2="194.16"/><line class="cls-1" x1="79.17" y1="210.07" x2="157.18" y2="210.07"/><line class="cls-1" x1="79.17" y1="225.97" x2="157.18" y2="225.97"/><line class="cls-1" x1="79.07" y1="241.84" x2="157.08" y2="241.84"/><text class="cls-4" transform="translate(4.6 33.39)"><tspan x="0" y="0">a</tspan></text><text class="cls-3" transform="translate(20.93 33.32)"><tspan x="0" y="0">0</tspan><tspan class="cls-2" x="6.67" y="0">1</tspan><tspan x="12.46" y="0">100001</tspan></text><text class="cls-4" transform="translate(4.6 49.21)"><tspan x="0" y="0">b</tspan></text><text class="cls-3" transform="translate(20.93 49.14)"><tspan x="0" y="0">0</tspan><tspan class="cls-2" x="6.67" y="0">1</tspan><tspan x="12.46" y="0">100010 </tspan></text><text class="cls-4" transform="translate(4.6 65.03)"><tspan x="0" y="0">c</tspan></text><text class="cls-3" transform="translate(20.93 64.97)"><tspan x="0" y="0">0</tspan><tspan class="cls-2" x="6.67" y="0">1</tspan><tspan x="12.46" y="0">1000</tspan><tspan class="cls-2" x="39.15" y="0">1</tspan><tspan x="44.94" y="0">1 </tspan></text><text class="cls-4" transform="translate(4.6 80.86)"><tspan x="0" y="0">d</tspan></text><text class="cls-3" transform="translate(20.93 80.79)"><tspan x="0" y="0">0</tspan><tspan class="cls-2" x="6.67" y="0">1</tspan><tspan x="12.46" y="0">100100 </tspan></text><text class="cls-4" transform="translate(4.6 96.68)"><tspan x="0" y="0">e</tspan></text><text class="cls-3" transform="translate(20.93 96.61)"><tspan x="0" y="0">0</tspan><tspan class="cls-2" x="6.67" y="0">1</tspan><tspan x="12.46" y="0">100101 </tspan></text><text class="cls-4" transform="translate(4.6 112.5)"><tspan x="0" y="0">f</tspan></text><text class="cls-3" transform="translate(20.93 112.44)"><tspan x="0" y="0">0</tspan><tspan class="cls-2" x="6.67" y="0">1</tspan><tspan x="12.46" y="0">100</tspan><tspan class="cls-2" x="32.48" y="0">1</tspan><tspan x="38.26" y="0">10 </tspan></text><text class="cls-4" transform="translate(4.6 125.33)"><tspan x="0" y="0">g</tspan></text><text class="cls-3" transform="translate(20.93 128.26)"><tspan x="0" y="0">0</tspan><tspan class="cls-2" x="6.67" y="0">1</tspan><tspan x="12.46" y="0">100</tspan><tspan class="cls-2" x="32.48" y="0">11</tspan><tspan x="44.04" y="0">1 </tspan></text><text class="cls-4" transform="translate(4.6 144.15)"><tspan x="0" y="0">h</tspan></text><text class="cls-3" transform="translate(20.93 144.08)"><tspan x="0" y="0">0</tspan><tspan class="cls-2" x="6.67" y="0">1</tspan><tspan x="12.46" y="0">101000 </tspan></text><text class="cls-4" transform="translate(4.6 159.98)"><tspan x="0" y="0">i</tspan></text><text class="cls-3" transform="translate(20.93 159.91)"><tspan x="0" y="0">0</tspan><tspan class="cls-2" x="6.67" y="0">1</tspan><tspan x="12.46" y="0">101001 </tspan></text><text class="cls-4" transform="translate(4.6 173.8)"><tspan x="0" y="0">j</tspan></text><text class="cls-3" transform="translate(20.93 175.73)"><tspan x="0" y="0">0</tspan><tspan class="cls-2" x="6.67" y="0">1</tspan><tspan x="12.46" y="0">101010 </tspan></text><text class="cls-4" transform="translate(4.6 191.62)"><tspan x="0" y="0">k</tspan></text><text class="cls-3" transform="translate(21.68 191.55)"><tspan x="0" y="0">0</tspan><tspan class="cls-2" x="6.67" y="0">1</tspan><tspan x="12.46" y="0">1010</tspan><tspan class="cls-2" x="39.15" y="0">1</tspan><tspan x="44.94" y="0">1 </tspan></text><text class="cls-4" transform="translate(4.6 207.45)"><tspan x="0" y="0">l</tspan></text><text class="cls-3" transform="translate(21.69 207.38)"><tspan x="0" y="0">0</tspan><tspan class="cls-2" x="6.67" y="0">1</tspan><tspan x="12.46" y="0">10</tspan><tspan class="cls-2" x="25.8" y="0">1</tspan><tspan x="31.59" y="0">100 </tspan></text><text class="cls-4" transform="translate(4.6 223.27)"><tspan x="0" y="0">m</tspan></text><text class="cls-3" transform="translate(22.23 223.2)"><tspan x="0" y="0">0</tspan><tspan class="cls-2" x="6.67" y="0">1</tspan><tspan x="12.46" y="0">10</tspan><tspan class="cls-2" x="25.8" y="0">1</tspan><tspan x="31.59" y="0">101 </tspan></text><text class="cls-4" transform="translate(4.6 239.09)"><tspan x="0" y="0">n</tspan></text><text class="cls-3" transform="translate(22.23 239.02)"><tspan x="0" y="0">0</tspan><tspan class="cls-2" x="6.67" y="0">1</tspan><tspan x="12.46" y="0">10</tspan><tspan class="cls-2" x="25.8" y="0">11</tspan><tspan x="37.37" y="0">10 </tspan></text><text class="cls-4" transform="translate(4.6 254.92)"><tspan x="0" y="0">o</tspan></text><text class="cls-3" transform="translate(22.23 254.85)"><tspan x="0" y="0">0</tspan><tspan class="cls-2" x="6.67" y="0">1</tspan><tspan x="12.46" y="0">10</tspan><tspan class="cls-2" x="25.8" y="0">111</tspan><tspan x="43.15" y="0">1 </tspan></text><text class="cls-5" transform="translate(3.56 13.04)"><tspan x="0" y="0">Binary Codes</tspan></text><rect class="cls-1" x=".5" y=".5" width="78.06" height="257.29"/><line class="cls-1" x1=".6" y1="19.16" x2="78.61" y2="19.16"/><line class="cls-1" x1=".92" y1="35.07" x2="78.93" y2="35.07"/><line class="cls-1" x1=".92" y1="50.98" x2="78.93" y2="50.98"/><line class="cls-1" x1=".29" y1="66.88" x2="78.3" y2="66.88"/><line class="cls-1" x1=".6" y1="82.79" x2="78.61" y2="82.79"/><line class="cls-1" x1=".6" y1="98.7" x2="78.61" y2="98.7"/><line class="cls-1" x1=".73" y1="114.6" x2="78.74" y2="114.6"/><line class="cls-1" x1="1.04" y1="130.51" x2="79.05" y2="130.51"/><line class="cls-1" x1="1.04" y1="146.42" x2="79.05" y2="146.42"/><line class="cls-1" x1=".43" y1="162.32" x2="78.44" y2="162.32"/><line class="cls-1" x1=".75" y1="178.23" x2="78.76" y2="178.23"/><line class="cls-1" x1=".75" y1="194.14" x2="78.76" y2="194.14"/><line class="cls-1" x1=".29" y1="210.04" x2="78.3" y2="210.04"/><line class="cls-1" x1=".6" y1="225.95" x2="78.61" y2="225.95"/><line class="cls-1" x1=".6" y1="241.86" x2="78.61" y2="241.86"/><line class="cls-1" x1=".14" y1="257.76" x2="78.15" y2="257.76"/></g></svg>